<svg width="196.49589719972215" height="235.11967433407594" xmlns="http://www.w3.org/2000/svg"><rect x="0" y="0" width="196.49589719972215" height="235.11967433407594" id="background" fill="#CCC5A3"/><g id="map" transform="translate(98.24794859986108 117.55983716703797)"><g fill="none"><path d="M -0.2645000182284349,-25.12826788795053 L -7.544184198150347,-42.67111616315084 C -9.073132223285304,-46.355630843002984 -12.594443858066978,-52.03317206545832 -11.892805685249344,-59.748995549734424 C -11.250355458648578,-66.81393690829576 -6.575082792929465,-72.85951710837276 -4.203518444493355,-79.40798179244312 C -2.4296077136656464,-84.30617980304272 -1.4652307848611825,-89.32659596346465 0.4390505012341322,-93.80024310684755 C 2.734235854246032,-99.19222457146086 6.682146418103584,-104.28426823042598 9.034646560451325,-110.50784056353746 C 11.422559808878756,-116.82509876865367 11.390141265409545,-123.8033565950308 14.007795621399499,-129.69654985079842 C 16.358727966565674,-134.9892649144187 16.358727966565674,-134.9892649144187 23.908840500498773,-143.99449979793314" stroke="#806F4D" stroke-width="2.3" stroke-linejoin="round" stroke-linecap="butt"/><path d="M -0.2645000182284349,-25.12826788795053 L -7.544184198150347,-42.67111616315084 C -9.073132223285304,-46.355630843002984 -12.594443858066978,-52.03317206545832 -11.892805685249344,-59.748995549734424 C -11.250355458648578,-66.81393690829576 -6.575082792929465,-72.85951710837276 -4.203518444493355,-79.40798179244312 C -2.4296077136656464,-84.30617980304272 -1.4652307848611825,-89.32659596346465 0.4390505012341322,-93.80024310684755 C 2.734235854246032,-99.19222457146086 6.682146418103584,-104.28426823042598 9.034646560451325,-110.50784056353746 C 11.422559808878756,-116.82509876865367 11.390141265409545,-123.8033565950308 14.007795621399499,-129.69654985079842 C 16.358727966565674,-134.9892649144187 16.358727966565674,-134.9892649144187 23.908840500498773,-143.99449979793314" stroke="#CCC5A3" stroke-width="1.7" stroke-linejoin="round" stroke-linecap="round"/></g><g fill="none"><path d="M 20.22631859359378,22.699198209746324 L 30.03208961678562,23.839216226906196 L 42.54531124627739,24.77705094997093 L 53.89199779699069,23.373372886960222 L 69.08804574579952,28.967044715293508 L 79.97329049988423,46.606684365844345 C 82.92296445914516,51.38665825742375 88.46300491515957,56.13399746641361 94.33417068275976,62.45453701110051 C 98.07842873849273,66.48537722981334 108.18089325287875,72.16450986909143 116.00065899801223,85.7793589649908 C 131.06883661490525,112.0142835254714 131.06883661490525,112.0142835254714 161.25044163132458,164.56291620367125" stroke="#806F4D" stroke-width="2.3" stroke-linejoin="round" stroke-linecap="butt"/><path d="M 20.22631859359378,22.699198209746324 L 30.03208961678562,23.839216226906196 L 42.54531124627739,24.77705094997093 L 53.89199779699069,23.373372886960222 L 69.08804574579952,28.967044715293508 L 79.97329049988423,46.606684365844345 C 82.92296445914516,51.38665825742375 88.46300491515957,56.13399746641361 94.33417068275976,62.45453701110051 C 98.07842873849273,66.48537722981334 108.18089325287875,72.16450986909143 116.00065899801223,85.7793589649908 C 131.06883661490525,112.0142835254714 131.06883661490525,112.0142835254714 161.25044163132458,164.56291620367125" stroke="#CCC5A3" stroke-width="1.7" stroke-linejoin="round" stroke-linecap="round"/></g><g fill="none"><path d="M 55.87190260358773,-114.03775490178921 C 52.9462349160188,-106.60476999075529 52.9462349160188,-106.60476999075529 51.28298428104204,-103.62872038745887 C 50.063839283541526,-101.4473077308974 47.93772095413446,-99.25536995865973 46.722343886363,-97.66647566213675 C 45.44918227976794,-96.00203812343923 43.28325286619533,-93.83042367718686 42.16170349168396,-91.70423093681464 C 40.87379443756268,-89.26265953267976 39.80106307499033,-85.40566349253251 38.68725493060491,-82.43384463024756 C 37.556986704916135,-79.418107629692 36.813210089744466,-75.35479407808526 35.212806369525865,-73.16345832368049 C 33.80437281767012,-71.23497567839944 30.670137213148347,-70.16446599105375 28.847961431098554,-68.96149676504407 C 26.935888986850298,-67.69917930314462 23.958728185429603,-66.49804734786353 22.483116492671247,-64.75953520640765 C 20.959281145992314,-62.964207706102464 20.097135294813956,-59.674375174457566 19.024024433324687,-57.387290738252744 C 17.97044359881565,-55.14182997985056 15.51488213286472,-52.41534300837718 15.56493237397813,-50.01504627009784 C 15.617990850562045,-47.47048133995361 18.129649463061433,-44.33480125609953 19.35267200536305,-41.62609403553067 C 20.657346494309635,-38.736546961401544 22.477457300252045,-35.48824998443946 23.140411636747974,-33.2371418009635 C 23.61032740849831,-31.64150967202561 23.187007631057856,-29.698323024980716 23.20205886073359,-28.55522961175956 C 23.21772939815057,-27.365101729260658 23.28138920038335,-25.4895710726386 23.263706084719207,-23.873317422555623 C 23.2404267198309,-21.745561251812816 23.13011820666756,-18.527423877760924 23.06292961926549,-15.838684143922695 C 22.99498651448594,-13.119750281421542 23.933058059786507,-9.607775871156322 22.862153153811768,-7.804050865289765 C 21.87919486606896,-6.1484543380596435 18.63729011193005,-5.993973569566254 16.733736905559123,-5.178425608390435 C 14.983585459069742,-4.428600261162817 12.238505326477945,-3.860631260845172 10.60532065730648,-2.5528003514911037 C 8.77249033982474,-1.0850960642472773 6.997622783702269,1.8867820507614308 5.2960576315463666,3.9807042611184102 C 3.6321094786217656,6.028335519831483 1.4842316786334848,8.628796894390828 -0.013205394213746351,10.514208873727924 C -1.373209193540668,12.22657963153174 -3.0510989289692483,14.447467365024782 -4.259873868238185,16.012507166305717 C -5.528281120544735,17.654754841703195 -7.503038973523045,19.678412082949997 -8.506542342262625,21.51080545888351 C -9.528653124947338,23.377175902675937 -10.227102357877465,26.22228974075898 -10.979397289212383,28.282331652782876 C -11.743957192511967,30.37595927068435 -12.719906585714021,33.094054497942054 -13.452252236162138,35.05385784668224 C -14.138190356520226,36.8894717053619 -15.060957561813728,39.24944496065888 -15.716722793132119,40.95971477231563 C -16.369426529061045,42.66200004485217 -17.514655841343973,44.95352580594704 -17.9811933501021,46.865571697949015 C -18.48660669071337,48.93694534644978 -18.650170799432722,51.92828960535519 -18.953904975953094,54.226902893590214 C -19.204436577621905,56.12288732088139 -18.920394594448624,59.25792559713818 -19.926616601804092,61.58823408923141 C -21.24644126374542,64.64481464035569 -24.456364892789868,68.6959027265036 -26.76740106364958,72.32217029282936 C -29.05209032449976,75.90709668654813 -31.062851020780105,80.83468187465826 -33.60818552549507,83.0561064964273 C -35.73154477778485,84.90925488032738 -39.66901690178043,84.90919389994437 -42.00981063629658,85.62488703086301 C -44.00521190775789,86.23497708807446 -47.644415767869475,86.62756884348238 -50.41143574709809,88.19366756529871 C -54.44412630767193,90.47612001587919 -60.153595154835166,95.1372338277265 -65.31085275956995,98.81298562074747 C -69.77620803820777,101.99559524196546 -69.77620803820777,101.99559524196546 -80.21026977204181,109.43230367619623" stroke="#A69974" stroke-width="4.104524032596743" stroke-linejoin="round" stroke-linecap="butt"/><path d="M 55.87190260358773,-114.03775490178921 C 52.57662366380175,-105.94342563446719 52.57662366380175,-105.94342563446719 51.28298428104204,-103.62872038745887 C 50.3347603940972,-101.93206609902218 47.66763716129636,-98.90228233721018 46.722343886363,-97.66647566213675 C 45.73210708123351,-96.37191313203869 43.034019671859475,-93.35793640154859 42.16170349168396,-91.70423093681464 C 41.15999644958963,-89.80523095582085 39.553550154015795,-84.74525930091363 38.68725493060491,-82.43384463024756 C 37.808157421735864,-80.08827140759324 36.45756481858478,-74.86783057710643 35.212806369525865,-73.16345832368049 C 34.11735805141584,-71.66352737735077 30.265209261581727,-69.89713949638494 28.847961431098554,-68.96149676504407 C 27.36079397446102,-67.97969429467783 23.630814475927746,-66.1117113164289 22.483116492671247,-64.75953520640765 C 21.297911223032077,-63.36316937283695 19.858666214483005,-59.166134188634274 19.024024433324687,-57.387290738252744 C 18.20457267315099,-55.640821259495496 15.5260044086677,-51.881943733204 15.56493237397813,-50.01504627009784 C 15.606200077987841,-48.035940213318995 18.40143225023957,-43.73286631819534 19.35267200536305,-41.62609403553067 C 20.367418830099282,-39.37866853343024 22.62478048614003,-34.988003721444805 23.140411636747974,-33.2371418009635 C 23.50590168144268,-31.996094589567363 23.190352348763575,-29.444302266487124 23.20205886073359,-28.55522961175956 C 23.21424705650235,-27.629574592038193 23.277459619124652,-25.13040359484238 23.263706084719207,-23.873317422555623 C 23.2455999120283,-22.21839595642233 23.1151874094671,-17.929926159130204 23.06292961926549,-15.838684143922695 C 23.010084982214728,-13.723957806421797 23.69507919179212,-9.206948092074864 22.862153153811768,-7.804050865289765 C 22.097630041122915,-6.516364677444114 18.214278288292064,-5.8127406893049605 16.733736905559123,-5.178425608390435 C 15.37250800273405,-4.595228116102287 11.875575399995396,-3.5700021698776006 10.60532065730648,-2.5528003514911037 C 9.179785965931794,-1.4112525725236833 6.619497194334291,2.352098097507426 5.2960576315463666,3.9807042611184102 C 4.001875734827233,5.573306351228578 1.1514678846674333,9.047777334243516 -0.013205394213746351,10.514208873727924 C -1.070986127023574,11.846052796464225 -3.319715582140123,14.795253987531655 -4.259873868238185,16.012507166305717 C -5.246412842254391,17.28981091383709 -7.726039722131841,20.085610610935223 -8.506542342262625,21.51080545888351 C -9.301517395461847,22.96242691516651 -10.394279009285224,26.68007683231985 -10.979397289212383,28.282331652782876 C -11.574054991778725,29.91070868892847 -12.882650063591381,33.52956635321765 -13.452252236162138,35.05385784668224 C -13.985759663107318,36.48155751454419 -15.20668316877337,39.62950491880483 -15.716722793132119,40.95971477231563 C -16.224381254410172,42.28371442873294 -17.618330843290224,45.378424893058586 -17.9811933501021,46.865571697949015 C -18.37429261502198,48.47664009122739 -18.717667283103918,52.4390925582963 -18.953904975953094,54.226902893590214 C -19.148762888362167,55.70155744815001 -19.14399948497206,59.775771928714455 -19.926616601804092,61.58823408923141 C -20.953146894425124,63.96557451788363 -24.96992848631425,69.50173996346489 -26.76740106364958,72.32217029282936 C -28.544381599866384,75.11044637683284 -31.628480910716764,81.32833179060694 -33.60818552549507,83.0561064964273 C -35.259687166164895,84.49744412834958 -40.18919328722846,85.06823681792629 -42.00981063629658,85.62488703086301 C -43.56178940298871,86.09940151980524 -48.25930909658695,86.97559078166378 -50.41143574709809,88.19366756529871 C -53.54797284976663,89.96890836019463 -61.29965240033179,95.95406755950894 -65.31085275956995,98.81298562074747 C -68.78390686517714,101.28834865947258 -68.78390686517714,101.28834865947258 -80.21026977204181,109.43230367619623" stroke="#806F4D" stroke-width="3.5045240325967426" stroke-linejoin="round" stroke-linecap="round"/><path d="M 55.87190260358773,-114.03775490178921 C 53.13104054212733,-106.93544216889933 53.13104054212733,-106.93544216889933 51.28298428104204,-103.62872038745887 C 49.928378728263695,-101.20492854683502 48.07276285055352,-99.43191376938451 46.722343886363,-97.66647566213675 C 45.307719879035155,-95.81710061913952 43.40786946336326,-94.066667315006 42.16170349168396,-91.70423093681464 C 40.7306934315492,-88.99137382110922 39.9248195354776,-85.73586558834195 38.68725493060491,-82.43384463024756 C 37.43140134650627,-79.08302574074139 36.99103272532431,-75.59827582857469 35.212806369525865,-73.16345832368049 C 33.64788020079726,-71.02069982892377 30.872601188931657,-70.29812923838816 28.847961431098554,-68.96149676504407 C 26.723436493044936,-67.55892180737801 24.12268504018053,-66.69121536358085 22.483116492671247,-64.75953520640765 C 20.789966107472434,-62.764726872735224 20.216369834979428,-59.92849566736921 19.024024433324687,-57.387290738252744 C 17.853379061647978,-54.8923343400281 15.50932099496323,-52.682042645963776 15.56493237397813,-50.01504627009784 C 15.623886236849147,-47.187751903270915 17.993758069472364,-44.635768725051626 19.35267200536305,-41.62609403553067 C 20.802310326414812,-38.4154861753872 22.403795707308053,-35.738373115936795 23.140411636747974,-33.2371418009635 C 23.662540272026128,-31.46421721325473 23.185335272205,-29.82533340422751 23.20205886073359,-28.55522961175956 C 23.21947056897468,-27.232865297871893 23.2833539910127,-25.669154811536707 23.263706084719207,-23.873317422555623 C 23.237840123732198,-21.50914389950806 23.13758360526779,-18.82617273707628 23.06292961926549,-15.838684143922695 C 22.987437280621545,-12.817646518921414 24.0520474937837,-9.80818976069705 22.862153153811768,-7.804050865289765 C 21.76997727854198,-5.964499168367407 18.848796023749042,-6.084590009696901 16.733736905559123,-5.178425608390435 C 14.78912418723759,-4.345286333693082 12.419970289719219,-4.005945806328957 10.60532065730648,-2.5528003514911037 C 8.568842526771215,-0.9220178101090746 7.186685578386259,1.6541240273884332 5.2960576315463666,3.9807042611184102 C 3.447226350519032,6.255850104132936 1.6506135756165106,8.419306674464483 -0.013205394213746351,10.514208873727924 C -1.5243207267992147,12.416843049065497 -2.916790602383811,14.273574053771345 -4.259873868238185,16.012507166305717 C -5.669215259689907,17.83722680563625 -7.391538599218648,19.474812818957385 -8.506542342262625,21.51080545888351 C -9.642220989690085,23.58455039643065 -10.143514032173584,25.993396194978548 -10.979397289212383,28.282331652782876 C -11.828908292878587,30.608584561562292 -12.638534846775341,32.87629857030426 -13.452252236162138,35.05385784668224 C -14.21440570322668,37.093428800770745 -14.988094758333906,39.05941498158591 -15.716722793132119,40.95971477231563 C -16.44194916638648,42.851142852911785 -17.46281834037085,44.74107626239126 -17.9811933501021,46.865571697949015 C -18.542763728559066,49.16709797406098 -18.616422557597126,51.67288812888463 -18.953904975953094,54.226902893590214 C -19.232273422251772,56.33355225724707 -18.808592149186904,58.99900243135004 -19.926616601804092,61.58823408923141 C -21.393088448405567,64.98443470159172 -24.19958309602768,68.29298410802298 -26.76740106364958,72.32217029282936 C -29.305944686816446,76.30542184140577 -30.78003607581178,80.58785691668392 -33.60818552549507,83.0561064964273 C -35.967473583594824,85.11516025631629 -39.40892870905641,84.82967244095342 -42.00981063629658,85.62488703086301 C -44.226923160142476,86.30276487220907 -47.33696910351074,86.45355787439166 -50.41143574709809,88.19366756529871 C -54.89220303662458,90.72972584372147 -59.58056653208686,94.72881696183528 -65.31085275956995,98.81298562074747 C -70.27235862472308,102.34921853321191 -70.27235862472308,102.34921853321191 -80.21026977204181,109.43230367619623" stroke="#CCC5A3" stroke-width="2.4627144195580457" stroke-linejoin="round" stroke-linecap="butt"/><path d="M 55.87190260358773,-114.03775490178921 C 53.13104054212733,-106.93544216889933 53.13104054212733,-106.93544216889933 51.28298428104204,-103.62872038745887 C 49.928378728263695,-101.20492854683502 48.07276285055352,-99.43191376938451 46.722343886363,-97.66647566213675 C 45.307719879035155,-95.81710061913952 43.40786946336326,-94.066667315006 42.16170349168396,-91.70423093681464 C 40.7306934315492,-88.99137382110922 39.9248195354776,-85.73586558834195 38.68725493060491,-82.43384463024756 C 37.43140134650627,-79.08302574074139 36.99103272532431,-75.59827582857469 35.212806369525865,-73.16345832368049 C 33.64788020079726,-71.02069982892377 30.872601188931657,-70.29812923838816 28.847961431098554,-68.96149676504407 C 26.723436493044936,-67.55892180737801 24.12268504018053,-66.69121536358085 22.483116492671247,-64.75953520640765 C 20.789966107472434,-62.764726872735224 20.216369834979428,-59.92849566736921 19.024024433324687,-57.387290738252744 C 17.853379061647978,-54.8923343400281 15.50932099496323,-52.682042645963776 15.56493237397813,-50.01504627009784 C 15.623886236849147,-47.187751903270915 17.993758069472364,-44.635768725051626 19.35267200536305,-41.62609403553067 C 20.802310326414812,-38.4154861753872 22.403795707308053,-35.738373115936795 23.140411636747974,-33.2371418009635 C 23.662540272026128,-31.46421721325473 23.185335272205,-29.82533340422751 23.20205886073359,-28.55522961175956 C 23.21947056897468,-27.232865297871893 23.2833539910127,-25.669154811536707 23.263706084719207,-23.873317422555623 C 23.237840123732198,-21.50914389950806 23.13758360526779,-18.82617273707628 23.06292961926549,-15.838684143922695 C 22.987437280621545,-12.817646518921414 24.0520474937837,-9.80818976069705 22.862153153811768,-7.804050865289765 C 21.76997727854198,-5.964499168367407 18.848796023749042,-6.084590009696901 16.733736905559123,-5.178425608390435 C 14.78912418723759,-4.345286333693082 12.419970289719219,-4.005945806328957 10.60532065730648,-2.5528003514911037 C 8.568842526771215,-0.9220178101090746 7.186685578386259,1.6541240273884332 5.2960576315463666,3.9807042611184102 C 3.447226350519032,6.255850104132936 1.6506135756165106,8.419306674464483 -0.013205394213746351,10.514208873727924 C -1.5243207267992147,12.416843049065497 -2.916790602383811,14.273574053771345 -4.259873868238185,16.012507166305717 C -5.669215259689907,17.83722680563625 -7.391538599218648,19.474812818957385 -8.506542342262625,21.51080545888351 C -9.642220989690085,23.58455039643065 -10.143514032173584,25.993396194978548 -10.979397289212383,28.282331652782876 C -11.828908292878587,30.608584561562292 -12.638534846775341,32.87629857030426 -13.452252236162138,35.05385784668224 C -14.21440570322668,37.093428800770745 -14.988094758333906,39.05941498158591 -15.716722793132119,40.95971477231563 C -16.44194916638648,42.851142852911785 -17.46281834037085,44.74107626239126 -17.9811933501021,46.865571697949015 C -18.542763728559066,49.16709797406098 -18.616422557597126,51.67288812888463 -18.953904975953094,54.226902893590214 C -19.232273422251772,56.33355225724707 -18.808592149186904,58.99900243135004 -19.926616601804092,61.58823408923141 C -21.393088448405567,64.98443470159172 -24.19958309602768,68.29298410802298 -26.76740106364958,72.32217029282936 C -29.305944686816446,76.30542184140577 -30.78003607581178,80.58785691668392 -33.60818552549507,83.0561064964273 C -35.967473583594824,85.11516025631629 -39.40892870905641,84.82967244095342 -42.00981063629658,85.62488703086301 C -44.226923160142476,86.30276487220907 -47.33696910351074,86.45355787439166 -50.41143574709809,88.19366756529871 C -54.89220303662458,90.72972584372147 -59.58056653208686,94.72881696183528 -65.31085275956995,98.81298562074747 C -70.27235862472308,102.34921853321191 -70.27235862472308,102.34921853321191 -80.21026977204181,109.43230367619623" stroke="#806F4D" stroke-width="2.162714419558046" stroke-linejoin="round" stroke-linecap="round"/><g fill="none"><line x1="2.19450458445105" y1="11.794856385708997" x2="-2.0136853392323917" y2="8.929241558791233" stroke="#342414" stroke-width="2.3" stroke-linejoin="round" stroke-linecap="butt"/><line x1="2.19450458445105" y1="11.794856385708997" x2="-2.0136853392323917" y2="8.929241558791233" stroke="#CCC5A3" stroke-width="1.7" stroke-linejoin="round" stroke-linecap="round"/></g><g fill="none"><line x1="-6.271508615700393" y1="22.74314698661386" x2="-10.741576068824857" y2="20.278463931153162" stroke="#342414" stroke-width="1.3" stroke-linejoin="round" stroke-linecap="butt"/><line x1="-6.271508615700393" y1="22.74314698661386" x2="-10.741576068824857" y2="20.278463931153162" stroke="#CCC5A3" stroke-width="0.7" stroke-linejoin="round" stroke-linecap="round"/></g></g><g fill="#A69974" stroke="#342414" stroke-width="0.3"><polygon points="-0.14295458596027721,-2.196959520436663 -0.6071005753156034,-1.0764119780139567 -1.7276481177383098,-0.6122659886586306 -2.848195660161016,-1.0764119780139567 -3.3123416495163425,-2.196959520436663 -2.8481956601610166,-3.3175070628593697 -1.72764811773831,-3.781653052214696 -0.6071005753156036,-3.31750706285937"/></g><g fill="#A69974" stroke="#342414" stroke-width="0.3"><polygon points="15.65830749243404,8.610730603737741 11.418008117576903,6.889218465500303 7.994865369402639,5.49946239618975 10.436563874847,2.494742462270377 12.499321530522984,-0.04365817688898321 15.058100734797176,0.995176365159351 18.227699743213684,2.281996630419089 17.051079670522814,5.180158802998163"/><polygon points="15.65830749243404,8.610730603737741 14.490009930714495,11.488393392498887 12.425486432197943,16.5735725821737 6.965031215999046,13.406073927690812 3.2982513440445196,11.279049741823403 6.297572939068439,7.588126655001467 9.588806568211321,9.155021714697217 11.073580342252658,6.749384801989981"/></g><g fill="#A69974" stroke="#342414" stroke-width="0.3"><polygon points="-18.90656510551946,10.672839724968062 -17.039435187628833,8.75776518021963 -14.608188181902893,6.264088008616226 -13.283368617687945,4.905249397814543 -10.55983206746744,7.560601164318927 -7.78645316691894,10.264547458765097 -5.442268558365479,12.550044505181038 -6.6100416387800776,14.061997880735484 -9.001177051094107,11.730725461966149 -11.83010292863334,8.972622830435249 -14.16124470151361,11.563899061927003 -11.230381605402371,14.421386874606217 -12.942348553492954,16.48773982460361 -15.951496591485494,13.553926963634378"/><polygon points="-6.812820229775474,5.362598305436545 -8.319929816967383,6.908407827806704 -9.737483556131401,8.36236186478818 -12.2293059703497,5.93292318188375 -13.283368617687945,4.905249397814543 -11.877312041300378,3.4630877506175355 -10.382425965476802,1.9298156179836976 -9.321312024554121,2.9502570435963724"/><polygon points="-5.442268558365479,12.550044505181038 -6.948489223661332,11.081532652819469 -9.737483556131401,8.36236186478818 -8.875690694600731,7.478439671613846 -6.812820229775474,5.362598305436545 -4.2338375689770285,7.842728517209245 -2.8410355349571215,9.182144425698443 -4.675778948929199,11.557645749163179"/><polygon points="-15.279961007500122,6.953110784068503 -17.13714022736117,8.857979114286103 -18.90656510551946,10.672839724968062 -20.405244035683737,9.21168079750207 -22.067198395419734,7.591334103562035 -23.349745865107177,6.340895702438116 -21.520040461254442,4.584806471334521 -19.59959111274089,2.7416242777949096 -18.352707188536932,3.957291983995817 -16.73696646712683,5.53258201579731"/><polygon points="-10.382425965476802,1.9298156179836976 -11.905060550953154,3.4915487934092315 -15.279961007500122,6.953110784068503 -17.58288720633871,4.707839227231792 -19.59959111274089,2.7416242777949096 -16.12997624618656,0.26964148779827757 -14.564609900684387,-0.8456288851247402 -12.612075430385,0.45014173297295423"/></g><g fill="#A69974" stroke="#342414" stroke-width="0.3"><polygon points="-13.465855798981725,-12.353014025417455 -14.437278699001922,-14.399107761250711 -15.772727610970673,-17.21194412041806 -13.344159327798296,-18.364954270060903 -10.486447687243736,-19.721708596938534 -7.909887525823644,-20.944980776628732 -6.574438613854893,-18.132144417461383 -5.603015713834695,-16.086050681628127 -8.179575875254788,-14.862778501937926 -11.037287515809348,-13.506024175060295"/><polygon points="-10.580042211666958,-6.274667402474474 -11.431692090808134,-8.068484989848296 -12.29147810057514,-9.879439589235202 -10.060942378575296,-10.93842991881623 -8.469001877693154,-11.694234714531884 -7.609564128364393,-9.884013650972799 -6.758259214082812,-8.090922657998064 -8.349911008544424,-7.334509764204293"/><polygon points="-8.189381619297759,-11.105274685791567 -5.912079434193485,-12.186468305679863 -4.149017757032716,-13.02351621670556 -3.239897523345693,-11.108649668647438 -5.002755981615925,-10.27117372066799 -4.481370029189263,-9.17298617414271 -6.758259214082812,-8.090922657998064 -7.279795674018175,-9.189427216270483"/><polygon points="-15.772727610970673,-17.21194412041806 -14.857933295399931,-15.285126337322513 -13.230416706760229,-11.85711213577222 -12.510368853886112,-10.340485956550703 -13.807633905314855,-9.724584076649508 -15.541476333020142,-8.901408574079674 -16.244775247668564,-10.425986638328997 -17.83443438739621,-13.871974401972496 -18.727949792934027,-15.808894762546018 -17.03751498068919,-16.611461653225263"/><polygon points="-12.510368853886112,-10.340485956550703 -11.606070537032245,-8.435775740844663 -10.580042211666958,-6.274667402474474 -12.20545113761491,-5.963074299210095 -13.579421535508096,-5.699682303978341 -14.62231435692814,-7.401498862554936 -15.541476333020142,-8.901408574079674 -14.152971746068012,-9.560628202646244"/><polygon points="-3.1471923873781256,-15.647680824769887 -0.8847127091223199,-10.882253226724796 -2.718628092135428,-10.01070754904277 -4.981440420502034,-14.77683580311308"/><polygon points="-3.1471923873781256,-15.647680824769887 -1.2935613702782012,-16.527728296038497 0.5403000636706778,-17.398389772198254 1.1762066869198209,-14.716023956652553 1.784366253329507,-12.150700099826947 0.4569815770537555,-11.519876896125615 -0.3987682605998937,-13.967956235738864 -1.9907219163302703,-13.211824117626218"/><polygon points="-7.909887525823644,-20.944980776628732 -3.879344791876435,-22.858559535361323 -1.0703052484216151,-24.192205835032446 -0.16464087231002278,-20.371954442734133 0.5403000636706778,-17.398389772198254 -1.7274974040173907,-16.32170870224578 -4.981440420502034,-14.77683580311308 -6.263183519134689,-17.47655239925803"/></g><g fill="#A69974" stroke="#342414" stroke-width="0.3"><polygon points="15.008627260180853,-23.81291713855072 14.945693374562065,-21.29444122752347 10.926999005359011,-21.394863888173468 10.992776008664848,-24.0271151260639"/><polygon points="10.868414849489355,-19.050454610486135 8.783680728488127,-19.102549775717698 6.903974796143845,-19.149521516692126 6.963809616344078,-21.543979634656313 7.031140689543788,-24.238421337243043 8.909516780727802,-24.138232273125542 10.992776008664848,-24.0271151260639 10.926929970173132,-21.392101251623387"/><polygon points="14.765844141622637,-14.097269841692682 14.840579103743009,-17.087998921282548 14.913918004633398,-20.022860695946655 17.044353180606933,-19.96962351265818 20.11102733928053,-19.89299076827218 20.037688438390138,-16.958128993608074 19.962953476269767,-13.967399914018209 16.896279317596175,-14.04403265840421"/><polygon points="20.20205978039191,-23.53590917076437 20.153522814631216,-21.593566379424544 20.11102733928053,-19.89299076827218 18.092318330253324,-19.943436040079412 14.913918004633398,-20.022860695946655 14.958129878834098,-21.79212282017486 15.008627260180853,-23.81291713855072 18.184778953446067,-23.64350715343806"/><polygon points="14.097117326041776,-14.11398057405971 19.962953476269767,-13.967399914018209 19.902276891603613,-11.539256230490448 14.036440741375621,-11.685836890531947"/><polygon points="14.036440741375621,-11.685836890531947 19.902276891603613,-11.539256230490448 18.770088996321974,-9.371466786049947 13.981597375537172,-9.491125815794673"/><polygon points="6.782709719074074,-14.296759408548672 10.581214590031195,-14.201839036261406 14.097117326041776,-14.11398057405971 14.024752749958818,-11.218109138747817 10.515455780697607,-11.570315881189739 10.426402809969114,-8.006611536861456 6.6446994806784145,-8.773892713490609 6.724087636509662,-11.950832387817456"/><polygon points="6.861366403660762,-17.44442720984699 5.436993258395509,-17.480020695657235 2.5593339843613636,-17.55193017027597 1.747181074617556,-20.977733774839542 0.8966018907693485,-24.565626152043635 5.000037370944188,-24.34675658574388 7.031140689543788,-24.238421337243043 6.944291777394126,-20.762918577525458"/><polygon points="3.998082823363407,-17.51597745201829 6.861366403660762,-17.44442720984699 6.7249855076921,-11.986763220975922 3.8617019273947455,-12.058313463147222"/></g><g fill="#A69974" stroke="#342414" stroke-width="0.3"><polygon points="14.786556446824694,30.335488832560277 13.510082537478699,29.505840018861047 10.054959284610497,27.26017021947173 12.053708025985037,24.18495263635145 14.585673672193394,20.289342791103085 18.00537457027908,22.469311166415658 15.493204518704305,26.401637903182326 16.763905218194136,27.220578560651603"/><polygon points="10.054959284610497,27.26017021947173 8.184292135479796,26.044323370006882 6.982018123773546,25.262901046957165 7.897749001723189,23.853983738351232 8.796009562284517,22.47194575984974 9.998283573990767,23.253368082899456 11.868950723121468,24.469214932364302 10.970690162560139,25.851252910865796"/><polygon points="6.982018123773546,25.262901046957165 5.377998120101861,24.22036246982489 3.5326443086949273,23.020968115361725 4.178496044149676,22.027279127923855 5.346635747205899,20.2300128282543 7.191989558612833,21.429407182717465 8.796009562284517,22.47194575984974 7.627869859228294,24.269212059519294"/><polygon points="5.346635747205899,20.2300128282543 6.556185674893161,18.369033942670242 7.91931144976374,16.27176765596145 11.843922737350557,18.6369887762681 14.585673672193394,20.289342791103085 13.146224824683982,22.504037572008354 11.868950723121468,24.469214932364302 9.186443744669525,22.725709862564"/><polygon points="7.91931144976374,16.27176765596145 6.316660284895189,18.737560849368357 0.4414254428404645,14.918930808263575 2.033549141540321,12.857557035462756"/><polygon points="-0.5174655879691703,20.388584604412827 -2.6916712059836474,18.975451834117422 0.4414254428404645,14.918930808263575 2.2665503882310936,16.10517733841946"/><polygon points="6.316660284895189,18.737560849368357 4.754907177854061,21.140429462039883 3.5326443086949273,23.020968115361725 1.1487361131621285,21.471538399712472 2.3709989823212627,19.59099974639063 0.7047972811899643,18.508045951090985 2.266550388231094,16.10517733841946 3.9327520893623915,17.188131133719104"/><polygon points="13.20539713946532,32.82628329397779 11.263579484829812,35.88522152792865 9.274293739842136,34.62242055442136 11.216111394477645,31.563482320470495"/><polygon points="9.716648889302785,30.61162172626299 10.999983882920322,28.589988814659538 14.464976185986707,30.842073038761587 13.20539713946532,32.82628329397779"/><polygon points="4.5653204998753,31.633158701702087 6.094202931104159,29.22471581164114 7.812327682119635,26.518160188855298 9.950749282289067,27.90803500790143 8.240382264710835,30.602369901638205 9.293423262707412,31.278327504578414 7.7748312346672765,33.67055996021385 6.718403093766975,32.9999381110749"/><polygon points="1.3466556552940148,29.589946403332092 3.3540224304809714,26.427748880035487 4.615579704645215,24.440422330064347 6.44277871220978,25.628016904398454 7.812327682119635,26.518160188855298 6.559228659878083,28.492162485574884 4.5653204998753,31.633158701702087 3.1863819180907003,30.757806838415526"/><polygon points="-2.757140745962862,36.054641832476776 1.3466556552940148,29.589946403332092 3.9677930488753197,31.25384756014219 0.6185548313329576,36.5298902481838"/><polygon points="3.9677930488753197,31.25384756014219 5.633226197479687,32.31106651758359 7.927118970523071,33.76723239733178 6.5747802391032515,35.89756664417392 5.717669069109532,37.247770728672414 3.423776296066147,35.791604848924216 1.7583431474617779,34.734385891482816 2.615454317455498,33.38418180698432"/><polygon points="7.927118970523071,33.76723239733178 11.263579484829812,35.88522152792865 10.014610934708857,37.852717107056186 6.678150420402115,35.73472797645932"/><polygon points="2.634381540317973,27.56139653659016 0.05509739448856932,25.92406387158106 -1.833849226126409,24.724958294402814 -1.062946878959198,23.510558652519403 0.1777744794235625,21.55605484430839 2.0538586884315437,22.775422531346194 4.615579704645215,24.440422330064347 3.3936240919291247,26.365364527909247"/><polygon points="0.1777744794235625,21.55605484430839 -4.328709598115519,28.655102693918465 -7.200396070751335,26.832152681639215 -3.0596465699645368,19.451881375971787"/><polygon points="-8.547758535341282,30.521693886998484 -5.511695945022454,31.63041623122908 -3.6947862696555047,32.293923090722565 -4.255939531532453,33.830553460522026 -6.135898926061362,33.33969838772143 -6.913656371391904,35.469465408650954 -10.18634931700918,35.00871825243194 -9.277317823450918,32.51947779888167"/><polygon points="-3.6947862696555047,32.293923090722565 -0.9955641042018737,33.279636605464916 -2.757140745962862,36.054641832476776 -4.955136973156193,35.74519620837212"/><polygon points="-5.372333513021495,27.99260898277647 -6.560884256420253,31.247269148602516 -8.547758535341282,30.521693886998484 -7.200396070751335,26.832152681639215"/></g><g fill="#A69974" stroke="#342414" stroke-width="0.3"><polygon points="27.10915307785571,13.20194500212859 22.787182319258818,14.181245137088835 22.108795435350896,11.187302656538954 26.430766193947782,10.208002521578708"/><polygon points="22.108795435350896,11.187302656538954 21.637995088112888,9.109507237892831 21.118953546630394,6.818807701866058 23.0318083454439,6.38538066886004 25.440924305227284,5.839507566905811 25.95996584670978,8.130207102932584 26.430766193947782,10.208002521578708 24.0216502341644,10.753875623532936"/><polygon points="19.229348497028948,14.98740217444162 13.634000111623429,16.255232461834893 17.094900010239414,7.730603822521509 17.561119724400527,7.624964739218843"/><polygon points="20.37574653608927,6.987208361282505 17.094900010239414,7.730603822521509 19.308664206163463,2.2778261583054884"/><polygon points="24.121969832618085,0.018531485074710696 24.65048377218,2.351035801935825 19.585306003041982,3.498736596312516 19.831197019036438,0.9907625875332585"/><polygon points="19.585306003041982,3.498736596312516 21.97558885112679,2.9571308228198374 24.65048377218,2.351035801935825 25.102256240906144,4.344854989403604 22.427361319852935,4.950950010287617 22.76602938417408,6.445602587789825 20.37574653608927,6.987208361282505 20.037078471768126,5.492555783780296"/><polygon points="23.42419140637595,-3.060992193660116 24.121969832618085,0.018531485074710696 21.976583425827265,0.504647036303985 21.278804999585127,-2.5748766424308425"/><polygon points="23.15742739525819,14.097352609085647 25.004241090982198,22.24794353065173 21.715070060317192,21.865544815893873 20.111295516441096,14.787564904969095"/><polygon points="15.928629173874896,18.773629796717355 13.293539259446687,17.093830056694983 14.326274743123488,16.09837239083394 16.678254926166304,17.59769720642392"/><polygon points="16.240261380501764,15.664688898513143 17.735513547204615,15.325884975386398 20.111295516441096,14.787564904969095 20.644695562584946,17.14163320310277 21.15108600452908,19.37649931246397 18.674772460820943,19.471140770297563 17.116248471830836,19.53070551433469 16.68963224923855,17.647909042278883"/><polygon points="21.15108600452908,19.37649931246397 21.512104840043982,20.969793129850675 20.570074475433675,21.732427736854554 19.573470914404822,19.73396556037897"/><polygon points="23.15742739525819,14.097352609085647 27.10915307785571,13.20194500212859 29.27125977350298,22.744026721471343 25.004241090982198,22.24794353065173"/></g><g fill-rule="nonzero" fill="#A69974" stroke="#342414" stroke-width="0.3"><path d="M -30.13347636829238,-25.737711574069593 L -8.180260580521614,-41.59487367169687 L -1.3608621919400958,-25.16123887350232 L -18.33296257362094,-17.103403260466706 L -21.512832533465875,-17.525631595471932 L -30.166784777149967,-24.923104823447837 Z"/></g><g fill="#A69974" stroke="#342414" stroke-width="0.3"><polygon points="-20.850837746760654,30.935037685125994 -18.95141229181401,26.991798122909824 -16.760921649114145,28.04693911039479 -18.66034710406079,31.99017867261096"/><polygon points="-16.043230466412393,33.25082182697208 -18.66034710406079,31.99017867261096 -16.760921649114145,28.04693911039479 -14.53449632143126,29.119389534523233"/><polygon points="-14.53449632143126,29.119389534523233 -17.21510972376331,27.828160520681873 -15.501418632248079,24.270508657123962 -13.173292986504048,25.391947272269885"/><polygon points="-15.35895616139785,22.10087246268632 -12.47818901694978,23.48851385692699 -13.173292986504048,25.391947272269885 -16.234059424618785,23.917601726564794"/><polygon points="-15.35895616139785,22.10087246268632 -14.781030268636476,20.901088476201963 -14.270001500647986,19.840184058966273 -12.957896867348717,20.47221386611331 -11.613220573607625,21.119933169162625 -12.019136241065885,22.231469686133913 -12.47818901694978,23.48851385692699 -13.936231434938236,22.78618704177332"/><polygon points="-14.270001500647986,19.840184058966273 -13.612363287459306,18.474915939010703 -11.090851441037476,19.68950706655341 -11.613220573607625,21.119933169162625"/><polygon points="-14.27444408384014,19.84940693726145 -15.30419793937964,21.987193462093533 -16.234059424618785,23.917601726564794 -19.398552648882514,22.393291857144995 -22.436058200015076,20.930150885785814 -21.137105805555482,19.177530619507774 -18.280367088830758,20.55359772145908 -17.042058039633226,18.516270485834564"/><polygon points="-19.698610655911743,17.23663135101907 -17.143180666652434,13.78870022795907 -13.204693280911608,17.628586069122253 -14.27444408384014,19.84940693726145"/><polygon points="-18.895488804690565,15.145354246234447 -20.22730724598639,16.942319247549204 -21.471805177288832,18.621466462678043 -22.909492730475282,17.555926068316296 -24.229686605373853,16.577465971770582 -22.98518867407141,14.898318756641745 -21.653370232775586,13.101353755326986 -20.333176357877015,14.0798138518727"/><polygon points="-18.895488804690565,15.145354246234447 -24.428159467819015,11.044822063704652 -22.55281382003884,8.514499318548731 -17.57672781481544,13.366007099187076"/><polygon points="-24.516503668971588,11.164021072081367 -28.313392365481086,8.349961598547267 -26.172354799266834,7.179541642860561 -22.55281382003884,8.514499318548731"/><polygon points="-26.44900250644789,9.731751891740851 -28.936974677893584,13.08866509980773 -30.801364536926776,11.706874806614147 -28.313392365481086,8.349961598547267"/><polygon points="-21.471805177288832,18.621466462678043 -23.165664131557346,20.906917064355095 -27.843248406644207,17.440131125999002 -26.149389452375694,15.154680524321952"/><polygon points="-34.25664793072558,16.851353781170978 -36.547009946656004,15.153854738157996 -33.330410745286144,11.092565709017705 -30.570588939153534,11.877913862294475"/><polygon points="-37.0929757388647,23.111335914488503 -38.67092924616857,22.3512489324004 -36.75923372964921,15.421809204236919 -36.547009946656004,15.153854738157996 -33.09273609426561,17.713985633603123"/><polygon points="-33.09273609426561,17.713985633603123 -31.804418995926763,18.66882029568559 -29.83544844394774,20.128120443198455 -32.15633938917059,23.259598181542387 -33.37410945347072,24.90268264211422 -35.62209581168314,23.81984645024924 -37.0929757388647,23.111335914488503 -35.71636122956022,21.25392951672503"/></g><g fill-rule="nonzero" fill="#A69974" stroke="#342414" stroke-width="0.6"><path d="M -34.88721407368514,5.16259864700084 L -37.66639436680654,1.8367656520902074 L -33.804542671761126,-1.3903302791401235 L -31.07187097960959,-3.6738446125476902 L -27.626267777316674,-6.553109005071935 L -29.976747158515643,-9.365917479281705 L -32.82757074830491,-12.77748569637706 L -28.988883388707176,-15.985224713210917 L -26.13805979891791,-12.573656496115564 L -23.787580417718942,-9.760848021905792 L -21.008400124597543,-6.43501502699516 L -24.847087484195278,-3.2272760101613027 L -28.292690686488193,-0.34801161763705846 L -31.025362378639727,1.9355027157705087 Z"/></g><g fill="#A69974" stroke="#342414" stroke-width="0.3"><polygon points="0.7921156426936151,-31.652719596201525 1.877961518710611,-27.64808465185638 -0.014521478324366122,-27.1349430331267 -1.6180594084162356,-30.999207184683915"/><polygon points="1.2223030821217362,-30.066174313300575 0.7921156426936151,-31.652719596201525 4.590106623310209,-32.68253452334631 5.020294062738331,-31.095989240445363"/><polygon points="5.675952499327205,-28.67789957900117 6.601965301034998,-25.262734216645516 0.6302053966887833,-25.581256709962464 -0.014521478324366122,-27.1349430331267"/><polygon points="5.940172280279917,-27.703448424227997 12.188559320060326,-29.397681579857885 13.06277832121544,-27.400132229658553 6.504579946984736,-25.62189457311124"/><polygon points="8.683464937821268,-33.792437499932994 10.09742356880352,-34.17582853797973 12.188559320060326,-29.397681579857885 10.033530594790975,-28.813351400814675"/><polygon points="13.06277832121544,-27.400132229658553 14.1749799328852,-24.858803793939288 6.601965301034998,-25.262734216645516 6.504579946984736,-25.62189457311124"/><polygon points="10.682892453758367,-34.33457683416643 13.05914909467431,-34.97889236098869 15.613636829120491,-35.67153476418731 18.3564805493329,-36.415249380761125 19.260300039530485,-33.05140706782266 20.133102699085,-29.80300343314016 17.625991242917777,-29.433104638126682 15.291047616172357,-29.088607455190143 13.119017105162257,-28.768146445457692 11.92222009627192,-31.50277138986018"/><polygon points="-2.363549339638986,-43.79284791672721 -1.7869198929552073,-41.97837025854087 -1.0558450732192894,-39.67789994003338 -0.5243474036420961,-38.005438270980264 -2.040789037557209,-37.523522775163826 -4.059246876973025,-36.88206972566183 -4.734326777455935,-38.50890187594559 -2.633882255884385,-39.176409771013525 -3.4496817268774773,-41.44995513480775 -5.662898895082514,-40.74660881068231 -6.395302763931961,-42.51158234934665 -4.093137068060739,-43.243195949214"/><polygon points="3.3103913127080453,-35.179545934661896 3.9606076488014748,-33.13351269509286 0.5112707850783382,-32.19823438370619 -0.09250321993302757,-34.09812771899679"/><polygon points="-1.2599328101044291,-37.77167391240392 0.5112707850783382,-32.19823438370619 -1.8499388860975685,-31.557998801814207 -4.059246876973025,-36.88206972566183"/></g><g fill="#A69974" stroke="#342414" stroke-width="0.3"><polygon points="48.60735235149334,-1.7422753226669294 47.06466280029535,-1.4489362123664078 44.51483673266397,-0.9640922529844114 44.181739162011986,-2.715874145442636 43.68594759906734,-5.323274375651428 46.37657583087779,-5.06763055199424 48.00445316418473,-4.912961549041189 48.36507115066596,-3.0164479912387314"/><polygon points="41.9732767070032,-0.480820063758946 41.00404186255716,-5.578089451574526 43.68594759906734,-5.323274375651428 44.51483673266397,-0.9640922529844114"/><polygon points="41.9732767070032,-0.480820063758946 38.486974947071516,0.1820927405076953 38.256292427558755,-5.8391605143508984 41.00404186255716,-5.578089451574526"/><polygon points="24.47546438632363,-2.9465830705270784 26.09291166274848,-3.3130747532723266 30.042733806576603,-4.208051044082675 32.44020873273858,-4.751286445220938 33.12933731822269,-1.7099373336981016 33.48969175933416,-0.11957570541390972 31.092216833172177,0.42365969572435325 27.142394689344055,1.3186359865347013 25.524947412919204,1.6851276692799497 25.164592971807732,0.0947660409957578"/><polygon points="24.47546438632363,-2.9465830705270784 24.10250690016387,-4.5925660453458566 26.205775924006478,-6.984112492327904 32.06032063789038,-6.4278564556393345 32.44020873273858,-4.751286445220938"/><polygon points="37.27687974671622,-0.9777012954091333 35.570145777900024,-0.5909784554458337 33.48969175933416,-0.11957570541390972 33.06018645830317,-2.0151226224922434 32.06032063789038,-6.4278564556393345 35.13584116652497,-6.135642979849227 37.65889397671424,-5.895920947626369 37.39166948493878,-2.455555003638798"/><polygon points="40.15812224900573,5.133988194927721 36.12586667114229,6.436048697541 32.1609999719395,7.716348576224304 32.30903114840643,3.4420128169459963 32.424015416568686,0.12189214445950558 34.83000090881623,-0.4232716358792886 37.27687974671622,-0.9777012954091333 38.53649231810273,1.6941879705314533"/><polygon points="50.71426663324287,9.338124574894998 51.066794501061246,11.192091669948763 51.49493890442963,13.443731067108045 49.22070961397682,13.876170890248584 47.66171586504543,14.172610208788392 47.233571461677045,11.920970811629106 46.881043593858664,10.06700371657534 48.44003734279006,9.770564398035535"/><polygon points="42.142341814329185,21.17547629395274 40.42976564502399,21.501118980412727 37.830276131803444,16.04203739333298 41.04982281795729,15.429847494364669"/><polygon points="40.42976564502399,21.501118980412727 44.75978190636395,20.67777567280952 45.28324890565404,23.43072283138809 41.47394142715216,23.693949825430597"/><polygon points="51.49493890442963,13.443731067108045 51.78382675107905,14.963011131868473 52.237785578631545,17.350410272821257 49.82568640384921,17.809065758844227 47.449002286307426,18.260987147670445 46.99504345875493,15.873588006717663 46.70615561210551,14.354307941957236 49.0828397296473,13.902386553131018"/><polygon points="44.410109584193975,18.838826078934655 46.37098067514271,18.46597064552212 48.06873980671761,18.14314538701562 48.5767023595134,20.814553648243052 48.98703766307608,22.972533825674155 47.26832306174085,23.185152899241388 45.28324890565404,23.43072283138809 44.89309239375212,21.37886423801363"/><polygon points="52.237785578631545,17.350410272821257 52.73045131045706,19.94137155289706 48.56140553854313,20.73410666709142 48.06873980671761,18.14314538701562"/><polygon points="48.56140553854313,20.73410666709142 52.73045131045706,19.94137155289706 53.20754203767278,22.450422865881254 48.98703766307608,22.972533825674155"/><polygon points="33.448621776118,10.686209420964781 27.85181871634698,11.954369317900102 27.383930020495665,9.889423966055015 32.866906324565186,8.118909487387896"/><polygon points="27.85181871634698,11.954369317900102 30.488360671864978,11.356964560421973 31.400576902005174,15.382872176929592 28.743165498604178,15.888173257221972"/><polygon points="30.488360671864978,11.356964560421973 31.93818198885897,11.028454653552219 33.448621776118,10.686209420964781 33.74901534189636,12.011944158474439 34.38426984078901,14.815529362302286 32.861874224663076,15.10500962436344 31.400576902005174,15.382872176929592 30.781231353138768,12.649498356066806"/><polygon points="34.38426984078901,14.815529362302286 33.718522760131975,11.877370454218642 35.74462730453529,11.418282560152958 36.399245999571626,14.432385966254095"/><polygon points="33.35611499237662,15.011030802141722 33.837873439619216,17.5446299597894 34.187113893320074,19.381308329161957 32.000685345638274,19.797053029328353 29.72683355382313,20.22942107191238 29.313431469288865,18.404942899066395 28.743165498604178,15.888173257221972 31.094848055210083,15.441005861598962"/><polygon points="34.187113893320074,19.381308329161957 34.91366218447413,23.202273273304016 32.02492620983561,22.98576972345901 31.438910225315453,19.90387336389048"/><polygon points="31.438910225315453,19.90387336389048 32.02492620983561,22.98576972345901 30.322473685105685,22.85817515674104 29.72683355382313,20.22942107191238"/><polygon points="33.35611499237662,15.011030802141722 36.399245999571626,14.432385966254095 38.24182119352635,18.301902755212467 34.13051642442746,19.083658541530735"/><polygon points="39.579016302433004,21.11009150159503 40.78479598888995,23.642300095218776 34.91366218447413,23.202273273304016 34.692515636544364,22.039249125500344"/><polygon points="34.692515636544364,22.039249125500344 34.13051642442746,19.083658541530735 38.24182119352635,18.301902755212467 39.579016302433004,21.11009150159503"/></g><g fill="#A69974" stroke="#342414" stroke-width="0.3"><polygon points="45.80789560968936,-7.6038625582324375 45.79408387950691,-6.127478243167603 41.757208297000886,-6.511032647800373 41.767785417798365,-7.641658213000919"/><polygon points="36.196435184160464,-12.453484455062465 38.43652655023847,-12.52995941935812 38.63187046537725,-6.8079793995108915 36.381870070415985,-7.021757987499261"/><polygon points="41.814594862294015,-12.645284025070533 41.784408034817346,-9.418508087561484 41.757208297000886,-6.511032647800373 40.66235540947736,-6.615057564806576 38.63187046537725,-6.8079793995108915 38.53928253562965,-9.520048949864588 40.64759172420554,-9.454079380101218 40.63120668317215,-12.604884079730494"/><polygon points="26.09741940114985,-15.089347998362069 29.734621811931177,-15.213519239193001 32.14740608481519,-15.295889804035173 32.32054119484839,-11.567582417569794 32.514576889831886,-7.389199912102368 29.884867607688086,-7.639055662534931 25.920657028167593,-8.015705969831004 26.014069166115174,-11.753854614323775"/><polygon points="29.0901049335875,-22.366143219568546 29.146288466759096,-18.0991811119152 26.171653003925655,-18.060013777876836 26.278333183872373,-22.329120328953294"/><polygon points="26.171653003925655,-18.060013777876836 32.540027424750456,-18.143866825195865 32.56943246212323,-15.910646997945706 26.112434271461332,-15.690210138286488"/><polygon points="32.48384389157886,-22.41082893284921 26.278333183872373,-22.329120328953294 26.298895975506827,-25.189985353894023 32.44618467881231,-25.270927342611962"/><polygon points="26.252452293383364,-28.71723649980255 27.870951193215237,-28.738547442888684 30.23334261027273,-28.769653295998204 30.25307228874803,-27.271246455097483 30.27978629239619,-25.242402150089678 27.9173948753387,-25.21129629698016 26.298895975506827,-25.189985353894023 26.272181971858664,-27.21882965890183"/><polygon points="30.176147790418714,-33.11341943697326 30.20688940818443,-30.778690545259778 30.23334261027273,-28.769653295998204 27.915518389933727,-28.739134263795933 26.252452293383364,-28.71723649980255 26.22697821257812,-30.65191257635486 26.197374444670032,-32.90022536084592 27.85955615038036,-32.98928981923819"/></g><g fill="#A69974" stroke="#342414" stroke-width="0.3"><polygon points="41.67970063092131,37.29654868159926 38.18099319307536,37.60331418245131 33.92679155194325,37.97632116298665 33.71055385232299,35.51009713876359 33.47402336130535,32.81243072613821 38.06021975742661,32.41031455625115 38.12331297074541,35.123187891520075 41.752420016301095,34.80498899657018"/><polygon points="37.952927419640716,27.67187777032006 33.060909873395744,28.10080823661671 32.793325592376405,25.048968601283754 37.75556030962324,25.420875705595183"/><polygon points="41.83196374045552,32.07960930221257 38.36604090755032,32.38350025984156 37.75556030962324,25.420875705595183 42.01698586406968,25.74025891265803"/><polygon points="33.32436710902005,31.105578288245358 33.75229166456917,35.98612326862348 33.92679155194325,37.97632116298665 30.680648457146926,38.26094190650492 28.921352064320086,38.415196427261584 28.746852176946,36.424998532898414 30.50614856977284,36.27074401214175 30.07822401422372,31.390199031763622"/><polygon points="33.052124365549155,28.00060817643145 28.046684877925983,28.439483440706383 27.70791342452424,24.57574322071916 32.793325592376405,25.048968601283754"/><polygon points="24.48394980315429,32.251557769377364 20.40394421464202,32.60929129813725 20.182696780062273,23.700862241199253 23.770803503576843,24.118015191500106"/><polygon points="27.90830771892219,26.86127078612218 24.041061559563158,27.200349639118333 23.770803503576843,24.118015191500106 27.70791342452424,24.57574322071916"/><polygon points="28.351195962513323,31.91247891638121 28.580444575855115,34.5270944008051 28.921352064320086,38.415196427261584 25.0139122838637,38.75779944354547 20.95366840306281,39.11380027236647 17.448668673685912,39.4211174792406 17.10776118522094,35.53301545278411 20.61276091459784,35.22569824590998 24.67300479539873,34.869697417088986 24.443756182056937,32.2550819326651"/><polygon points="17.448668673685912,39.4211174792406 11.387778443588996,39.9525343124782 10.820060672537215,38.44978858426165 16.569396270414543,29.392881290119817"/><polygon points="21.53442365433183,54.832674733563394 17.27994404029214,55.549063313122346 11.608024768946022,40.53552508969569 20.21468868776354,39.78089566879539"/><polygon points="20.21468868776354,39.78089566879539 23.221509079607788,39.51725866002505 28.23738988000921,39.07746790492933 28.542762179180627,42.56028566460455 28.837640918794094,45.923422773186616 23.82176011839267,46.36321352828234 20.814939726548424,46.626850537052675 20.520060986934958,43.26371342847061"/><polygon points="21.07495143238171,49.59232379463612 23.14954592496832,49.410424041687634 26.27578101251747,49.13631679223906 29.09765262462738,48.88889603077007 29.310974735310115,51.32186731740331 29.501180752967365,53.49119602891787 26.698986684098905,53.963042179507156 26.499505508467834,51.68792887324487 23.38479479420282,52.09347336193232 23.59455153452503,54.48578105450306 21.53442365433183,54.832674733563394 21.317847967475057,52.362595913233925"/><polygon points="28.982535565893084,47.575968375939425 33.04589679346236,47.21969421919384 35.98909822575581,46.961635299571284 41.411488739983575,46.48620190839395 41.34589873093725,48.73349018547478 41.264851741854116,51.51037573721465 36.13270448140685,52.37454997696573 33.347043225904216,52.84361225743276 29.501180752967365,53.49119602891787 29.214523010712444,50.22182065209824"/><polygon points="34.57066092503749,47.086003408855085 34.24061968149706,43.32183256707662 33.82551523915361,38.58750293784499 37.28077457955174,38.28454695168128 37.45130268917615,43.040320952166 41.52247954511324,42.68336152373271 41.411488739983575,46.48620190839395 37.5868861800232,46.821541784822315"/><polygon points="34.57066092503749,47.086003408855085 31.69489351491026,47.338149735912594 28.982535565893084,47.575968375939425 28.81752965242759,45.69405070551428 28.526666265560454,42.376709308901546 28.23738988000921,39.07746790492933 30.949747829026386,38.8396492649025 33.82551523915361,38.58750293784499 34.11479162470486,41.886744341817206 31.23902421457763,42.138890668874716 31.529887601444766,45.45623206548745 34.405655011571994,45.20408573842994"/></g><g fill="#A69974" stroke="#342414" stroke-width="0.3"><polygon points="-8.321990285496,36.2810542825607 -0.27198932483680316,37.414376324016224 -0.7177946069369581,40.58093694659459 -8.310598844880264,39.51198149660501"/><polygon points="-12.962219077942132,42.30138717067535 -10.534425698073207,35.96957583297737 -8.92229198881519,36.19654060918107 -8.900818314868706,42.28706768820352"/><polygon points="8.287049068915383,52.150086018081886 2.380344902770294,51.03138226333678 3.0075476643631593,47.71978064476316 8.686620994249406,49.00876261677626"/><polygon points="8.200700690894832,57.58397263470078 8.373661245706396,56.22420483350159 8.606767603562078,54.391587448501284 11.009514315196895,54.69721345608105 12.233049866953875,54.852845460072416 11.999943509098193,56.68546284507272 11.826982954286628,58.04523064627191 10.60344740252965,57.889598642280546"/><polygon points="12.233049866953875,54.852845460072416 16.13546639227996,55.34922736199049 16.40734099859183,56.06887790681809 13.360008114076585,61.493260063616546 11.391445537875576,61.46930474049789"/><polygon points="12.970316601285907,49.981035044040794 14.21408171985576,50.26333300395944 16.13546639227996,55.34922736199049 12.348757074998154,54.8675632544498"/><polygon points="12.348757074998154,54.8675632544498 10.188687231205606,54.59280540367218 8.606767603562078,54.391587448501284 8.8936380996151,52.13629135470744 10.467174555578602,52.40341547521668 10.836890646885996,49.496810341504435 12.970316601285907,49.981035044040794 12.61579739787694,52.76816646962792"/><polygon points="3.3955720572884536,45.671029768102365 3.59224391252549,44.63261145425951 3.971516591992203,42.63006922052804 6.034927199737685,43.02087010195635 8.02273498406858,43.397352141600095 7.643462304601867,45.39989437533156 7.446790449364831,46.43831268917442 5.458982665033936,46.06183064953067"/><polygon points="7.446790449364831,46.43831268917442 7.1428486658808374,48.043111270707314 3.1192725717600283,47.129878292881244 3.3955720572884536,45.671029768102365"/><polygon points="8.525990096373341,40.7401883876788 8.02273498406858,43.397352141600095 3.971516591992203,42.63006922052804 4.474771704296966,39.97290546660675"/><polygon points="4.474771704296966,39.97290546660675 4.823479651989835,38.131743605239194 8.91102718617176,38.70721033358182 8.525990096373341,40.7401883876788"/><polygon points="11.932065866288884,46.916388987502984 11.530075014944492,49.03888211968087 7.1428486658808374,48.043111270707314 7.514698912175767,46.07975914137368"/><polygon points="7.514698912175767,46.07975914137368 7.975429582602207,43.64712247689879 12.002721018507273,44.409873737851164 11.932065866288884,46.916388987502984"/><polygon points="12.271861078988126,45.122285955334235 13.959844306974006,49.59036801036223 11.530075014944492,49.03888211968087"/><polygon points="7.975429582602207,43.64712247689879 8.599721944552282,40.35088763404421 10.613367662504817,40.7322632645204 9.989075300554745,44.02849810737497"/></g><g fill="#A69974" stroke="#342414" stroke-width="0.3"><polygon points="-38.758053204753054,18.906880441749454 -41.29969361020212,18.405201738911163 -40.884320483568075,16.30080879574274 -38.186023397555175,16.833408993269153"/><polygon points="-42.01325496935345,21.376460027936478 -41.42201111018192,18.381058243004848 -38.758053204753054,18.906880441749454 -39.57228284331799,21.85826844081364"/><polygon points="-41.327876826554906,16.213257948538605 -40.85363215866635,13.81060580653038 -37.532918830740186,14.46606090209787 -38.186023397555175,16.833408993269153"/><polygon points="-40.85363215866635,13.81060580653038 -40.46707938312114,11.852224580447377 -37.95326949533445,12.348409989281429 -37.532918830740186,14.46606090209787"/><polygon points="-40.46707938312114,11.852224580447377 -40.11436610627535,10.065283434854095 -38.41447974974124,10.220636908899595 -37.95326949533445,12.348409989281429"/><polygon points="-43.643804801414454,7.6746364991567395 -46.09214296865631,7.025420553452609 -45.01573981791951,2.966064133255645 -42.99155883969571,4.743266226845342"/><polygon points="-42.06721357788358,5.849426189922552 -39.063639830155374,9.443789858075375 -41.99290036688735,9.503364685778681"/></g><g fill="#A69974" stroke="#342414" stroke-width="0.3"><polygon points="73.33474679164397,40.047619030287905 74.57005977831253,39.75491812961198 78.67147460670267,46.401298736082 75.04388098630821,47.26083792285863"/><polygon points="66.7770459872509,41.60143166929005 65.48916444945783,36.166064763166624 64.69799915214158,32.827035863291925 67.30736812471291,32.95186490804856 70.46518524957625,33.102931046780334 72.02726370886349,35.63429361603948 74.57005977831253,39.75491812961198 70.30300267490868,40.76597481798226"/><polygon points="67.91969212661523,31.879734297502125 66.48324486147612,31.53753331071137 66.9819915643311,29.443958584256094 68.4184388294702,29.786159571046845"/><polygon points="63.955382146957774,32.459148844371725 59.992470276645335,33.903958769068446 56.96333218684149,35.00833073560435 56.49147317315389,32.66461962967071 55.904090457556016,29.747105384850922 58.45685605301044,28.708027007323054 59.308402237277406,31.589333911965124 62.99368870989446,30.18257647524858"/><polygon points="49.31842910978484,27.331701841447977 52.02203799165753,26.787384661242744 54.59200086303477,26.26997441275619 55.02192295568438,28.405385953069008 52.45196008430714,28.92279620155556 52.85724451323609,30.935833124850692 50.1536356313634,31.48015030505592 49.74835120243445,29.46711338176079"/><polygon points="49.31842910978484,27.331701841447977 48.84994207844306,25.004739281676795 53.77411729609946,24.395578475078963 54.59200086303477,26.26997441275619"/><polygon points="47.84444735257824,31.945058843010074 46.505543772143874,25.29476055430151 48.84994207844306,25.004739281676795 50.1536356313634,31.48015030505592"/><polygon points="51.38483979545096,31.232272151027637 51.85552435480135,33.57014977366716 52.307111100081876,35.81316906439781 50.5616102748443,36.42940651486662 48.86768174414244,37.027436709950614 48.36665879544461,34.538869118512885 50.084934793924376,34.06177214495729 49.58810048460348,31.59400941332238"/><polygon points="46.505543772143874,25.29476055430151 47.072784119956594,28.112228196834508 47.562299883377726,30.543639906645055 46.24957313434702,30.807930990759793 45.918125366578096,28.309764193550464 42.92748475483965,28.82139516012862 43.01782142602373,25.726220375214016 45.53405081552172,25.414942190190114"/><polygon points="47.562299883377726,30.543639906645055 48.05476680368407,32.98970993380589 48.24833874674141,33.951176599866024 45.04336072435416,34.596434355698364 42.74542997610129,35.05907641667928 42.774801654451444,34.05272454397446 44.97963454771306,33.60882586050342 44.817508603954565,31.09624833291737"/><polygon points="48.24833874674141,33.951176599866024 48.86768174414244,37.027436709950614 42.62364209514496,39.23185335547162 42.74542997610129,35.05907641667928"/><polygon points="53.4442927888213,52.37874649166879 51.28580130020216,52.89018967217318 50.33094761954695,48.860331378748825 52.489439108166096,48.34888819824444"/><polygon points="53.67617019894254,42.530096099341456 51.17672710473072,43.12232596558532 49.08859128398236,43.617098741442724 48.59121036581917,41.517955533788594 47.76981096996221,38.05132684012678 49.804938585639256,37.33283857868881 52.24093226684567,36.47282722048137 53.134867032023976,40.24558371733249"/><polygon points="51.28580130020216,52.89018967217318 49.46476575637928,53.32167444533767 46.848475913697605,53.94159053271518 46.487804561628614,52.419415492934796 46.03506772850177,50.50868789280347 48.651357571183446,49.88877180542596 50.47239311500633,49.45728703226147 50.92512994813317,51.36801463239279"/><polygon points="42.36356651469983,48.14273493008026 44.343804996935106,47.673527859840895 45.30909728688345,47.444806939934296 45.94673573993174,50.135892139982666 46.41751029130242,52.12274600943884 45.45221800135408,52.35146692934544 44.9814434499834,50.364613059889265 43.00120496774813,50.83382013012863"/><polygon points="48.613070404694675,41.610213500366854 45.63919948826032,42.31485653830799 42.512034641337344,43.0558217650437 42.559084630018916,41.44376392973826 42.604877679789496,39.87477216685374 45.2522310879987,38.94014166357528 47.76981096996221,38.05132684012678 48.18573252862723,39.80667949421099"/><polygon points="49.746422673388004,46.39340607939229 44.1942396680833,47.70896657613164 42.36356651469983,48.14273493008026 42.44812771763715,45.24544305865118 42.512034641337344,43.0558217650437 44.0248641127157,42.69736479614572 48.613070404694675,41.610213500366854 49.10091287028774,43.669100684532914"/></g><g fill="#A69974" stroke="#342414" stroke-width="0.3"><polygon points="39.52642750045387,58.630172277929866 40.31389099664203,61.424000755589645 35.99062420736571,62.6425489979246 35.52344817371265,59.758444869110896"/><polygon points="43.05285448812902,57.63621987642345 40.75139242894251,58.284905854808734 39.22459339721859,52.86800128063859 41.59632901488358,52.46863767700973"/><polygon points="40.149415449727364,56.14916186722328 40.75139242894251,58.284905854808734 35.52344817371265,59.758444869110896 35.166315152484984,57.553689601585"/><polygon points="39.22459339721859,52.86800128063859 39.67779980172557,54.47592465143424 40.149415449727364,56.14916186722328 38.0673360717084,56.73601303559903 35.166315152484984,57.553689601585 34.84448524734925,55.566877583597375 34.53521778604391,53.65761962127461 37.265240449573724,53.197926019350675"/><polygon points="23.63819661321994,61.95372419759272 22.722714518001712,62.107877226235935 20.346853388188514,62.507935502317345 19.715375298720257,61.154707401468734 18.686354527787078,58.94956387106335 21.80721096528008,58.42405990510588 23.009759445247855,58.22156933620715 23.399205601756123,60.534407341875244"/><polygon points="23.63819661321994,61.95372419759272 23.990701838695934,64.0471778600637 21.278266351997242,64.50391005336157 20.346853388188514,62.507935502317345"/><polygon points="17.551409810210746,56.5174302620774 22.580225007659557,55.6706555439012 23.009759445247855,58.22156933620715 18.686354527787078,58.94956387106335"/><polygon points="22.580225007659557,55.6706555439012 24.929512174099344,55.27507191233601 26.423411876411453,55.0235223027877 26.77433905147629,57.10760425904256 27.08196384065026,58.934522542859526 25.58806413833815,59.18607215240784 23.238776971898364,59.58165578397303 22.931152182724393,57.75473750015607"/><polygon points="27.83388870744783,63.400044618950204 27.231684417024447,59.82368124549881 34.72189593256333,58.562445448174564 35.301814105873675,62.14256145913533"/><polygon points="30.697251758030273,59.240133293689084 28.965522855624496,59.53172966295637 27.231684417024447,59.82368124549881 26.814439815441204,57.345754178882416 28.548278254041257,57.053802596339985 28.157250315011506,54.731570720245266 29.888979217417283,54.43997435097798 30.280007156447034,56.762206227072696"/><polygon points="30.697251758030273,59.240133293689084 30.4947145374986,58.037307759581935 29.888979217417283,54.43997435097798 31.37787163019443,54.18926789155913 33.94353559414785,53.757249753148784 34.526854122290764,57.35835780288206 31.975375176356547,57.78798740360234 32.17515997259601,58.99127640339928"/><polygon points="14.211872853042102,63.2379516313226 14.157039523947686,62.116213322503164 17.076717334008585,56.919062628212 18.985831130874104,61.010204475764695"/><polygon points="16.420087644906964,67.53705447663603 14.466584530848785,68.44864832652885 14.211872853042102,63.2379516313226 14.377798144313761,63.16052330577942"/><polygon points="14.466584530848785,68.44864832652885 18.896672746882764,66.38136666050178 21.028120631467306,65.3867356466213 22.58622819142555,68.72568749537923 23.21735791090311,70.07816905558175 20.43891496918258,70.8612960121368 14.664085838214591,72.48897901906584 14.607148682116849,71.32420222646773"/></g><g fill-rule="nonzero" fill="#A69974" stroke="#342414" stroke-width="0.3"><path d="M -78.68978027279411,-54.53196583446935 L -80.2415824593743,-53.4459783274104 L -81.41136192233523,-52.627339267757264 L -82.74714077200974,-54.53607627093529 L -81.57736130904881,-55.35471533058843 L -82.10375070127934,-56.106889922419725 L -80.55194851469915,-57.19287742947867 L -80.02555912246862,-56.44070283764737 Z"/></g><g fill-rule="nonzero" fill="#A69974" stroke="#342414" stroke-width="0.3"><path d="M 71.06309910398663,-80.34526882565959 L 72.29779638488256,-78.5214291796608 L 72.87745751908254,-77.66517965667536 L 71.64856026617949,-76.83324462335781 L 71.0688991319795,-77.68949414634325 L 69.53652502799665,-76.65211229994368 L 68.30182774710072,-78.47595194594247 L 69.83420185108358,-79.51333379234204 Z"/></g><g fill-rule="nonzero" fill="#A69974" stroke="#342414" stroke-width="0.3"><path d="M 157.23056158667782,22.7204661122582 L 157.95942238191273,24.06964646293629 L 156.98618306908122,24.59541455550282 L 157.57282058232286,25.68132809483814 L 156.20275000477434,26.421474310411227 L 155.20197926834993,26.962115563029176 L 154.6153417551083,25.876202023693857 L 153.88648095987338,24.527021673015767 L 153.45136100583926,23.72157940474067 L 154.45213174226367,23.18093815212272 L 154.8872516962978,23.98638042039782 L 156.2573222738463,23.24623420482473 Z"/></g><g fill-rule="nonzero" fill="#A69974" stroke="#342414" stroke-width="0.3"><path d="M -120.62848328475756,68.5980246995793 L -119.27263726126262,68.99841831730457 L -117.58545940626328,69.49665722747802 L -118.13547653704498,71.35917078066893 L -118.52733320221132,72.68610826849454 L -120.21451105721066,72.18786935832108 L -119.82265439204431,70.86093187049548 L -121.17850041553926,70.4605382527702 Z"/></g><g><path fill="none" stroke="#342414" stroke-width="1.9" stroke-linejoin="round" stroke-linecap="round" d="M -35.850522764159514,10.247862940009236 L -47.975052544793165,-4.261509227033023 L -32.68572533069805,-24.510975208081426 L -21.57294022610746,-15.011670383577103 L -14.421545167963787,-3.3418589926998346 L -23.738918791578055,3.2964533651257732 M -27.79799660713046,5.845867638011418 L -35.850522764159514,10.247862940009236"/><g stroke="#342414" stroke-width="3.8" stroke-linecap="butt"><line x1="-25.286343058343675" y1="4.398940616129105" x2="-26.13084068958245" y2="4.9344999040068345" stroke="#CCC5A3" stroke-width="3.8" stroke-linecap="butt"/><line x1="-22.077252059636336" y1="2.363815322193733" x2="-25.286343058343675" y2="4.398940616129105"/><line x1="-26.13084068958245" y1="4.9344999040068345" x2="-29.339931688289788" y2="6.969625197942206"/></g><circle cx="-35.850522764159514" cy="10.247862940009236" r="2.5" stroke="none" fill="#342414"/><circle cx="-47.975052544793165" cy="-4.261509227033023" r="2.5" stroke="none" fill="#342414"/><circle cx="-32.68572533069805" cy="-24.510975208081426" r="2.5" stroke="none" fill="#342414"/><circle cx="-21.57294022610746" cy="-15.011670383577103" r="2.5" stroke="none" fill="#342414"/><circle cx="-14.421545167963787" cy="-3.3418589926998346" r="2.5" stroke="none" fill="#342414"/></g><g id="labels" style="font: bold italic 6px &quot;Merriweather&quot;, serif" fill="#342414"><text text-anchor="middle" stroke="#CCC5A3" stroke-width="1.392268564819299" x="-0.8857705838530558" y="-1.381241927126299">Market</text><text text-anchor="middle" x="-0.8857705838530558" y="-1.381241927126299">Market</text><text text-anchor="middle" stroke="#CCC5A3" stroke-width="1.392268564819299" x="11.646231344539782" y="5.407787835975386">Merchant</text><text text-anchor="middle" x="11.646231344539782" y="5.407787835975386">Merchant</text><text text-anchor="middle" stroke="#CCC5A3" stroke-width="1.392268564819299" x="-8.417674736864793" y="-13.982606340937553">Gate</text><text text-anchor="middle" x="-8.417674736864793" y="-13.982606340937553">Gate</text><text text-anchor="middle" stroke="#CCC5A3" stroke-width="1.392268564819299" x="-15.155919859539475" y="-27.501592706041">Temple</text><text text-anchor="middle" x="-15.155919859539475" y="-27.501592706041">Temple</text><text text-anchor="middle" stroke="#CCC5A3" stroke-width="1.392268564819299" x="-18.064887189726868" y="14.18087988114271">Craftsmen</text><text text-anchor="middle" x="-18.064887189726868" y="14.18087988114271">Craftsmen</text><text text-anchor="middle" stroke="#CCC5A3" stroke-width="1.392268564819299" x="-31.56425634707689" y="-6.251012437219982">Castle</text><text text-anchor="middle" x="-31.56425634707689" y="-6.251012437219982">Castle</text><text text-anchor="middle" stroke="#CCC5A3" stroke-width="1.392268564819299" x="10.818831095420624" y="-25.536994734729273">Craftsmen</text><text text-anchor="middle" x="10.818831095420624" y="-25.536994734729273">Craftsmen</text><text text-anchor="middle" stroke="#CCC5A3" stroke-width="1.392268564819299" x="30.190434073033515" y="10.337819680828659">Craftsmen</text><text text-anchor="middle" x="30.190434073033515" y="10.337819680828659">Craftsmen</text><text text-anchor="middle" stroke="#CCC5A3" stroke-width="1.392268564819299" x="37.10558226016778" y="-19.58445576894161">Shanty town</text><text text-anchor="middle" x="37.10558226016778" y="-19.58445576894161">Shanty town</text><text text-anchor="middle" stroke="#CCC5A3" stroke-width="1.392268564819299" x="27.610140958826324" y="39.15647502958931">Craftsmen</text><text text-anchor="middle" x="27.610140958826324" y="39.15647502958931">Craftsmen</text><text text-anchor="middle" stroke="#CCC5A3" stroke-width="1.392268564819299" x="-2.1319944115745106" y="50.018684208330455">Shanty town</text><text text-anchor="middle" x="-2.1319944115745106" y="50.018684208330455">Shanty town</text><text text-anchor="middle" stroke="#CCC5A3" stroke-width="1.392268564819299" x="-54.85321637555876" y="9.760132644412511">Shanty town</text><text text-anchor="middle" x="-54.85321637555876" y="9.760132644412511">Shanty town</text><text text-anchor="middle" stroke="#CCC5A3" stroke-width="1.392268564819299" x="32.045959914560285" y="73.70312592442292">Shanty town</text><text text-anchor="middle" x="32.045959914560285" y="73.70312592442292">Shanty town</text></g></g></svg>